<?xml version="1.0" encoding="utf-8"?>
<!-- Generator: Adobe Illustrator 19.2.1, SVG Export Plug-In . SVG Version: 6.00 Build 0)  -->
<svg version="1.1" id="layer" xmlns="http://www.w3.org/2000/svg" xmlns:xlink="http://www.w3.org/1999/xlink" x="0px" y="0px"
	 viewBox="0 0 652 652" style="enable-background:new 0 0 652 652;" xml:space="preserve">
<style type="text/css">
	.st0{fill:#0067B1;}
	.st1{fill:#FFFFFF;}
</style>
<g>
	<polygon class="st0" points="70,72 570,72 570,572 70,572 	"/>
	<polygon class="st1" points="141,335.9 156.5,335.9 156.5,169 179.8,169 179.8,154.9 117.8,154.9 117.8,169 141,169 	"/>
	<path class="st1" d="M253.9,234.9V169h8.8c8,0,13.1,1.8,13.1,12.3v40.6c0,10.8-4.3,13-11.5,13H253.9L253.9,234.9z M276.4,335.9
		h15.5v-77.5c0-12.5-6.6-16-17.6-16.8v-0.5c12-0.8,17-5.5,17-19.5v-45.9c0-18-9.3-20.9-24-20.9h-29v181h15.5v-87h10.4
		c7.3,0,12.3,2.3,12.3,11V335.9L276.4,335.9z"/>
	<polygon class="st1" points="380.3,237.1 379.8,237.1 365,154.9 349.5,154.9 372.3,257.2 372.3,335.9 387.8,335.9 387.8,257.2 
		410.6,154.9 395.1,154.9 	"/>
	<path class="st1" d="M471.6,335.9h15.5v-81.4h9.3c20,0,25.9-7,25.9-27.6v-44.4c0-20.5-5.9-27.6-25.9-27.6h-24.7V335.9L471.6,335.9z
		 M487.3,240.5V169h7.5c7,0,12,2,12,11.3v48.9c0,9.2-5,11.4-12,11.4H487.3L487.3,240.5z"/>
	<path class="st1" d="M114.9,535.5v-32.1h12c5.1,0,9.4,1.4,9.4,8.3c0,3.6-1.9,6.4-5.5,7.1v0.1c4.8,0.6,6,3.8,6,8.1
		c0,8.1-7.1,8.5-9.9,8.5H114.9L114.9,535.5z M121.6,516.5h4.5c1.5,0,3.5-0.9,3.5-4.1c0-2.4-1.6-4.1-3.9-4.1h-4.1V516.5L121.6,516.5z
		 M121.6,530.6h3.8c1.5,0,4.6,0,4.6-4.5c0-2.9-1.1-4.6-4.5-4.6h-3.9V530.6L121.6,530.6z"/>
	<polygon class="st1" points="163.5,524.4 155.1,503.4 162.5,503.4 167.3,516.9 172.4,503.4 179.3,503.4 170.3,524.4 170.3,535.5 
		163.5,535.5 	"/>
	<polygon class="st1" points="220.6,503.4 227.5,503.4 231.6,526 231.8,526 236.9,503.4 244.8,503.4 249.5,526 249.6,526 
		253.6,503.4 260.3,503.4 253.1,535.5 245.8,535.5 240.6,512 240.6,512 235,535.5 227.8,535.5 	"/>
	<polygon class="st1" points="284.5,524.4 276.1,503.4 283.5,503.4 288.3,516.9 293.4,503.4 300.3,503.4 291.3,524.4 291.3,535.5 
		284.5,535.5 	"/>
	<polygon class="st1" points="319,535.5 319,503.4 328.1,503.4 336.6,525.6 336.8,525.6 336.8,503.4 343,503.4 343,535.5 
		334.1,535.5 325.4,512 325.3,512 325.3,535.5 	"/>
	<path class="st1" d="M364.4,503.4h11.3c8.8,0,10.5,5.9,10.5,15.9c0,5,0.8,16.3-10.8,16.3h-11L364.4,503.4L364.4,503.4z
		 M371.1,530.6h3.3c4.1,0,4.9-3.1,4.9-11.1c0-5.9,0-11.1-4.6-11.1h-3.5V530.6L371.1,530.6z"/>
	<polygon class="st1" points="421.8,516.3 421.8,503.4 428.5,503.4 428.5,535.5 421.8,535.5 421.8,521.3 414,521.3 414,535.5 
		407.3,535.5 407.3,503.4 414,503.4 414,516.3 	"/>
	<path class="st1" d="M447.4,535.5l8.9-32.1h8.9l8.8,32.1h-7.1l-1.8-7.1h-9.3l-1.9,7.1H447.4L447.4,535.5z M460.4,509.6L460.4,509.6
		l-3.1,13.9h6.4L460.4,509.6L460.4,509.6z"/>
	<polygon class="st1" points="492.5,535.5 492.5,503.4 503.4,503.4 508.4,525.3 508.5,525.3 513.9,503.4 524.3,503.4 524.3,535.5 
		517.8,535.5 517.8,510.8 517.6,510.8 511.5,535.5 505,535.5 499.1,510.8 499.1,510.8 499.1,535.5 	"/>
</g>
</svg>
